HIERARCHY
ROOT Hips
{
	OFFSET -0.001795 -0.223333 0.028219
	CHANNELS 6 Xposition Yposition Zposition Zrotation Yrotation Xrotation 
	JOINT LeftUpLeg
	{
		OFFSET 0.069520 -0.091406 -0.006815
		CHANNELS 3 Zrotation Yrotation Xrotation
		JOINT LeftLeg
		{
			OFFSET 0.034277 -0.375199 -0.004496
			CHANNELS 3 Zrotation Yrotation Xrotation
			JOINT LeftFoot
			{
				OFFSET -0.013596 -0.397961 -0.043693
				CHANNELS 3 Zrotation Yrotation Xrotation
				JOINT LeftToe
				{
					OFFSET 0.026358 -0.055791 0.119288
					CHANNELS 3 Zrotation Yrotation Xrotation
					End Site
					{
						OFFSET 0.000000 0.000000 0.000000
					}
				}
			}
		}
	}
	JOINT RightUpLeg
	{
		OFFSET -0.067670 -0.090522 -0.004320
		CHANNELS 3 Zrotation Yrotation Xrotation
		JOINT RightLeg
		{
			OFFSET -0.038290 -0.382569 -0.008850
			CHANNELS 3 Zrotation Yrotation Xrotation
			JOINT RightFoot
			{
				OFFSET 0.015774 -0.398415 -0.042312
				CHANNELS 3 Zrotation Yrotation Xrotation
				JOINT RightToe
				{
					OFFSET -0.025372 -0.048144 0.123348
					CHANNELS 3 Zrotation Yrotation Xrotation
					End Site
					{
						OFFSET 0.000000 0.000000 0.000000
					}
				}
			}
		}
	}
	JOINT Spine
	{
		OFFSET -0.002533 0.108963 -0.026696
		CHANNELS 3 Zrotation Yrotation Xrotation
		JOINT Spine1
		{
			OFFSET 0.005487 0.135180 0.001092
			CHANNELS 3 Zrotation Yrotation Xrotation
			JOINT Spine2
			{
				OFFSET 0.001457 0.052922 0.025425
				CHANNELS 3 Zrotation Yrotation Xrotation
				JOINT Neck
				{
					OFFSET -0.002778 0.213870 -0.042857
					CHANNELS 3 Zrotation Yrotation Xrotation
					JOINT Head
					{
						OFFSET 0.005152 0.064970 0.051349
						CHANNELS 3 Zrotation Yrotation Xrotation
						End Site
						{
							OFFSET 0.000000 0.000000 0.000000
						}
					}
				}
				JOINT LeftShoulder
				{
					OFFSET 0.078845 0.121749 -0.034090
					CHANNELS 3 Zrotation Yrotation Xrotation
					JOINT LeftArm
					{
						OFFSET 0.090977 0.030469 -0.008868
						CHANNELS 3 Zrotation Yrotation Xrotation
						JOINT LeftForeArm
						{
							OFFSET 0.259612 -0.012772 -0.027456
							CHANNELS 3 Zrotation Yrotation Xrotation
							JOINT LeftHand
							{
								OFFSET 0.249234 0.008986 -0.001171
								CHANNELS 3 Zrotation Yrotation Xrotation
								End Site
								{
									OFFSET 0.000000 0.000000 0.000000
								}
							}
						}
					}
				}
				JOINT RightShoulder
				{
					OFFSET -0.081759 0.118833 -0.038615
					CHANNELS 3 Zrotation Yrotation Xrotation
					JOINT RightArm
					{
						OFFSET -0.096012 0.032551 -0.009143
						CHANNELS 3 Zrotation Yrotation Xrotation
						JOINT RightForeArm
						{
							OFFSET -0.253742 -0.013329 -0.021401
							CHANNELS 3 Zrotation Yrotation Xrotation
							JOINT RightHand
							{
								OFFSET -0.255298 0.007772 -0.005559
								CHANNELS 3 Zrotation Yrotation Xrotation
								End Site
								{
									OFFSET 0.000000 0.000000 0.000000
								}
							}
						}
					}
				}
			}
		}
	}
}
MOTION
Frames: 7
Frame Time: 0.050000
0.293783 0.952362 1.671715 0.067186 10.766281 12.375940 3.177676 -1.521498 -17.876911 -0.942056 0.003267 2.310051 2.310233 10.520394 14.862049 0.000000 0.000000 0.000000 -0.099050 1.600132 -18.955033 -2.434618 0.511179 4.390347 -4.437360 -11.957364 11.717778 0.000000 0.000000 0.000000 4.579232 -2.461529 21.004706 -1.509653 0.827284 -4.860887 -4.425726 8.585608 6.448106 16.520671 -4.447264 -27.433720 0.000000 0.000000 0.000000 -19.467178 -20.583025 5.182263 -23.622790 -23.947478 1.836803 91.127260 -63.100940 -64.134478 0.000000 0.000000 0.000000 18.683651 16.532492 11.928695 15.683060 40.617294 1.288990 -61.000824 42.046714 -19.106159 0.000000 0.000000 0.000000 
0.292022 0.952431 1.670997 -0.013585 9.815172 11.978747 3.451954 -1.404311 -17.125238 -1.185183 0.046508 1.844207 2.747130 11.087982 15.078652 0.000000 0.000000 0.000000 0.098103 1.624272 -18.523793 -2.469497 0.501679 4.051515 -3.978389 -11.185619 11.560229 0.000000 0.000000 0.000000 4.378544 -2.204506 19.741167 -1.470342 0.818830 -5.173013 -4.563054 7.685828 6.442995 15.925538 -4.322611 -27.310342 0.000000 0.000000 0.000000 -19.543110 -20.873978 5.742460 -23.987047 -25.213369 2.009497 87.634390 -62.478794 -60.072509 0.000000 0.000000 0.000000 20.004752 16.364937 11.785262 19.264080 40.471089 2.226447 -63.282029 47.865335 -23.728993 0.000000 0.000000 0.000000 
0.290892 0.952092 1.670312 -0.206274 8.949800 11.550817 3.871195 -1.284370 -16.389922 -1.531116 0.095813 1.439971 3.192143 11.625767 15.118708 0.000000 0.000000 0.000000 0.369921 1.662622 -18.245321 -2.480336 0.504443 4.056447 -3.579295 -10.503831 11.307672 0.000000 0.000000 0.000000 4.161146 -1.976377 18.543919 -1.595371 0.860802 -5.036038 -4.385308 6.907029 5.908001 15.125598 -4.112610 -26.947756 0.000000 0.000000 0.000000 -20.112249 -20.842306 6.051375 -24.287748 -26.826771 2.302438 82.444218 -62.051863 -54.900015 0.000000 0.000000 0.000000 20.764743 15.927709 11.319117 23.655096 40.224193 3.457391 -64.866554 53.995533 -28.560363 0.000000 0.000000 0.000000 
0.289971 0.951719 1.669418 -0.387226 8.330757 11.309820 4.193994 -1.212028 -15.999647 -1.717243 0.122432 1.215516 3.524777 12.031141 15.131833 0.000000 0.000000 0.000000 0.713780 1.710544 -18.111481 -2.665195 0.529491 4.000021 -3.291647 -10.009031 11.162120 0.000000 0.000000 0.000000 3.982864 -1.772216 17.254550 -1.589852 0.845929 -4.689727 -4.333941 5.893874 5.309003 14.093717 -3.725505 -26.891567 0.000000 0.000000 0.000000 -20.571983 -20.598542 6.297440 -25.251518 -28.282423 2.676944 77.517490 -62.468451 -50.893952 0.000000 0.000000 0.000000 21.529557 15.683829 10.904171 27.444003 39.589725 4.463853 -64.172104 60.303564 -32.587975 0.000000 0.000000 0.000000 
0.288935 0.950990 1.668456 -0.663699 7.636318 10.831256 4.586632 -1.118281 -15.395781 -1.852490 0.142104 1.078836 3.924688 12.486117 14.982451 0.000000 0.000000 0.000000 1.034790 1.737688 -17.754937 -2.591985 0.517655 3.970701 -2.980347 -9.454976 10.876739 0.000000 0.000000 0.000000 3.934832 -1.644619 16.385445 -1.578812 0.838025 -4.637271 -4.351805 5.563091 4.913874 13.750896 -3.657369 -26.702239 0.000000 0.000000 0.000000 -21.225948 -20.761905 6.580596 -26.028898 -29.005111 2.954596 72.371445 -62.979813 -47.084273 0.000000 0.000000 0.000000 22.274377 15.450771 10.676852 30.342019 38.458675 5.026813 -61.244331 65.496610 -34.266775 0.000000 0.000000 0.000000 
0.287809 0.950602 1.667694 -0.923901 6.943616 10.346014 4.912787 -1.032581 -14.771450 -1.886645 0.151535 0.958918 4.298487 12.928669 14.932155 0.000000 0.000000 0.000000 1.277372 1.764949 -17.542693 -2.390993 0.503171 4.250115 -2.677510 -8.912217 10.627818 0.000000 0.000000 0.000000 3.674165 -1.524397 15.923004 -1.555256 0.828319 -4.740818 -4.283709 5.319520 4.639635 13.248664 -3.631601 -25.916314 0.000000 0.000000 0.000000 -21.626618 -20.579754 6.648469 -26.990269 -29.652377 3.246597 67.307380 -63.428331 -43.433560 0.000000 0.000000 0.000000 22.858874 15.026376 10.314275 32.765050 37.471898 5.447923 -54.524753 70.264425 -32.593646 0.000000 0.000000 0.000000 
0.286651 0.950289 1.667407 -1.290638 6.559360 9.955220 5.221763 -0.958669 -14.129969 -1.648280 0.138136 0.589333 4.507753 13.165053 14.852685 0.000000 0.000000 0.000000 1.812528 1.805788 -17.216632 -2.483615 0.517236 4.242616 -2.490728 -8.577341 10.522797 0.000000 0.000000 0.000000 3.822610 -1.457111 15.083874 -1.776669 0.914160 -4.609793 -4.133488 4.807780 4.325947 12.759827 -3.603213 -25.207272 0.000000 0.000000 0.000000 -22.535539 -20.451578 6.808722 -27.206428 -29.875510 3.338056 61.531903 -63.746679 -39.146175 0.000000 0.000000 0.000000 23.177772 14.634175 9.849777 34.803726 36.277868 5.702776 -43.561312 73.710021 -26.419823 0.000000 0.000000 0.000000 
